<svg xmlns="http://www.w3.org/2000/svg" xmlns:xlink="http://www.w3.org/1999/xlink" xmlns:lucid="lucid" width="1404.53" height="876.5"><g transform="translate(-195.4691033640031 -304.5)" lucid:page-tab-id="0_0"><path d="M240.47 386a6 6 0 0 1 6-6h268a6 6 0 0 1 6 6v102a6 6 0 0 1-6 6h-268a6 6 0 0 1-6-6z" fill="#f5fbff"/><path d="M240.47 420v-34a6 6 0 0 1 6-6h268a6 6 0 0 1 6 6v34" fill="#c4c9cc"/><path d="M240.47 386a6 6 0 0 1 6-6h268a6 6 0 0 1 6 6v102a6 6 0 0 1-6 6h-268a6 6 0 0 1-6-6zM240.47 420h280M300.47 420v74M438.2 420v74" stroke="#a9a9a9" stroke-width="2" fill="none"/><use xlink:href="#a" transform="matrix(1,0,0,1,250.4690613753886,380) translate(67.71604938271605 24.444444444444443)"/><use xlink:href="#b" transform="matrix(1,0,0,1,245.4690613753886,422.5) translate(10.185185185185187 20.444444444444443)"/><use xlink:href="#c" transform="matrix(1,0,0,1,305.4690613753886,422.5) translate(0 20.444444444444443)"/><use xlink:href="#d" transform="matrix(1,0,0,1,443.1899499138205,422.5) translate(0 20.444444444444443)"/><use xlink:href="#a" transform="matrix(1,0,0,1,305.4690613753886,459.5) translate(0 20.444444444444443)"/><use xlink:href="#e" transform="matrix(1,0,0,1,443.1899499138205,459.5) translate(0 20.444444444444443)"/><path d="M240.47 1053a6 6 0 0 1 6-6h268a6 6 0 0 1 6 6v102a6 6 0 0 1-6 6h-268a6 6 0 0 1-6-6z" fill="#f5fbff"/><path d="M240.47 1087v-34a6 6 0 0 1 6-6h268a6 6 0 0 1 6 6v34" fill="#c4c9cc"/><path d="M240.47 1053a6 6 0 0 1 6-6h268a6 6 0 0 1 6 6v102a6 6 0 0 1-6 6h-268a6 6 0 0 1-6-6zM240.47 1087h280M300.47 1087v74M427.14 1087v74" stroke="#a9a9a9" stroke-width="2" fill="none"/><use xlink:href="#f" transform="matrix(1,0,0,1,250.4690613753886,1047) translate(94.19753086419753 24.444444444444443)"/><use xlink:href="#b" transform="matrix(1,0,0,1,245.4690613753886,1089.5) translate(10.185185185185187 20.444444444444443)"/><use xlink:href="#g" transform="matrix(1,0,0,1,305.4690613753886,1089.5) translate(0 20.444444444444443)"/><use xlink:href="#d" transform="matrix(1,0,0,1,432.1357280420551,1089.5) translate(0 20.444444444444443)"/><use xlink:href="#h" transform="matrix(1,0,0,1,305.4690613753886,1126.5) translate(0 20.444444444444443)"/><use xlink:href="#e" transform="matrix(1,0,0,1,432.1357280420551,1126.5) translate(0 20.444444444444443)"/><path d="M240.47 862a6 6 0 0 1 6-6h268a6 6 0 0 1 6 6v102a6 6 0 0 1-6 6h-268a6 6 0 0 1-6-6z" fill="#f5fbff"/><path d="M240.47 896v-34a6 6 0 0 1 6-6h268a6 6 0 0 1 6 6v34" fill="#c4c9cc"/><path d="M240.47 862a6 6 0 0 1 6-6h268a6 6 0 0 1 6 6v102a6 6 0 0 1-6 6h-268a6 6 0 0 1-6-6zM240.47 896h280M300.47 896v74M427.14 896v74" stroke="#a9a9a9" stroke-width="2" fill="none"/><use xlink:href="#i" transform="matrix(1,0,0,1,250.4690613753886,856) translate(104.10493827160494 24.444444444444443)"/><use xlink:href="#b" transform="matrix(1,0,0,1,245.4690613753886,898.5) translate(10.185185185185187 20.444444444444443)"/><use xlink:href="#j" transform="matrix(1,0,0,1,305.4690613753886,898.5) translate(0 20.444444444444443)"/><use xlink:href="#d" transform="matrix(1,0,0,1,432.1357280420551,898.5) translate(0 20.444444444444443)"/><use xlink:href="#k" transform="matrix(1,0,0,1,305.4690613753886,935.5) translate(0 20.444444444444443)"/><use xlink:href="#e" transform="matrix(1,0,0,1,432.1357280420551,935.5) translate(0 20.444444444444443)"/><path d="M240.47 560a6 6 0 0 1 6-6h268a6 6 0 0 1 6 6v213a6 6 0 0 1-6 6h-268a6 6 0 0 1-6-6z" fill="#f5fbff"/><path d="M240.47 594v-34a6 6 0 0 1 6-6h268a6 6 0 0 1 6 6v34" fill="#c4c9cc"/><path d="M240.47 560a6 6 0 0 1 6-6h268a6 6 0 0 1 6 6v213a6 6 0 0 1-6 6h-268a6 6 0 0 1-6-6zM240.47 594h280M300.47 594v185M427.14 594v185" stroke="#a9a9a9" stroke-width="2" fill="none"/><use xlink:href="#l" transform="matrix(1,0,0,1,250.4690613753886,554) translate(94.25925925925927 24.444444444444443)"/><use xlink:href="#b" transform="matrix(1,0,0,1,245.4690613753886,596.5) translate(10.185185185185187 20.444444444444443)"/><use xlink:href="#m" transform="matrix(1,0,0,1,305.4690613753886,596.5) translate(0 20.444444444444443)"/><use xlink:href="#d" transform="matrix(1,0,0,1,432.1357280420551,596.5) translate(0 20.444444444444443)"/><use xlink:href="#n" transform="matrix(1,0,0,1,245.4690613753886,633.5) translate(10.833333333333336 20.444444444444443)"/><use xlink:href="#c" transform="matrix(1,0,0,1,305.4690613753886,633.5) translate(0 20.444444444444443)"/><use xlink:href="#o" transform="matrix(1,0,0,1,432.1357280420551,633.5) translate(0 20.444444444444443)"/><use xlink:href="#n" transform="matrix(1,0,0,1,245.4690613753886,670.5) translate(10.833333333333336 20.444444444444443)"/><use xlink:href="#j" transform="matrix(1,0,0,1,305.4690613753886,670.5) translate(0 20.444444444444443)"/><use xlink:href="#o" transform="matrix(1,0,0,1,432.1357280420551,670.5) translate(0 20.444444444444443)"/><use xlink:href="#p" transform="matrix(1,0,0,1,305.4690613753886,707.5) translate(0 20.444444444444443)"/><use xlink:href="#e" transform="matrix(1,0,0,1,432.1357280420551,707.5) translate(0 20.444444444444443)"/><use xlink:href="#q" transform="matrix(1,0,0,1,305.4690613753886,744.5) translate(0 20.444444444444443)"/><use xlink:href="#e" transform="matrix(1,0,0,1,432.1357280420551,744.5) translate(0 20.444444444444443)"/><path d="M740 720a6 6 0 0 1 6-6h328a6 6 0 0 1 6 6v361a6 6 0 0 1-6 6H746a6 6 0 0 1-6-6z" fill="#f5fbff"/><path d="M740 754v-34a6 6 0 0 1 6-6h328a6 6 0 0 1 6 6v34" fill="#c4c9cc"/><path d="M740 720a6 6 0 0 1 6-6h328a6 6 0 0 1 6 6v361a6 6 0 0 1-6 6H746a6 6 0 0 1-6-6zM740 754h340M800 754v333M961.52 754v333" stroke="#a9a9a9" stroke-width="2" fill="none"/><use xlink:href="#r" transform="matrix(1,0,0,1,749.9967762906119,714) translate(118.05555555555556 24.444444444444443)"/><use xlink:href="#b" transform="matrix(1,0,0,1,744.9967762906119,756.5) translate(10.185185185185187 20.444444444444443)"/><use xlink:href="#s" transform="matrix(1,0,0,1,804.9967762906119,756.5) translate(0 20.444444444444443)"/><use xlink:href="#d" transform="matrix(1,0,0,1,966.5199466431817,756.5) translate(0 20.444444444444443)"/><use xlink:href="#n" transform="matrix(1,0,0,1,744.9967762906119,793.5) translate(10.833333333333336 20.444444444444443)"/><use xlink:href="#t" transform="matrix(1,0,0,1,804.9967762906119,793.5) translate(0 20.444444444444443)"/><use xlink:href="#o" transform="matrix(1,0,0,1,966.5199466431817,793.5) translate(0 20.444444444444443)"/><use xlink:href="#n" transform="matrix(1,0,0,1,744.9967762906119,830.5) translate(10.833333333333336 20.444444444444443)"/><use xlink:href="#u" transform="matrix(1,0,0,1,804.9967762906119,830.5) translate(0 20.444444444444443)"/><use xlink:href="#o" transform="matrix(1,0,0,1,966.5199466431817,830.5) translate(0 20.444444444444443)"/><use xlink:href="#n" transform="matrix(1,0,0,1,744.9967762906119,867.5) translate(10.833333333333336 20.444444444444443)"/><use xlink:href="#g" transform="matrix(1,0,0,1,804.9967762906119,867.5) translate(0 20.444444444444443)"/><use xlink:href="#o" transform="matrix(1,0,0,1,966.5199466431817,867.5) translate(0 20.444444444444443)"/><use xlink:href="#v" transform="matrix(1,0,0,1,804.9967762906119,904.5) translate(0 20.444444444444443)"/><use xlink:href="#w" transform="matrix(1,0,0,1,966.5199466431817,904.5) translate(0 20.444444444444443)"/><use xlink:href="#x" transform="matrix(1,0,0,1,804.9967762906119,941.5) translate(0 20.444444444444443)"/><use xlink:href="#o" transform="matrix(1,0,0,1,966.5199466431817,941.5) translate(0 20.444444444444443)"/><use xlink:href="#y" transform="matrix(1,0,0,1,804.9967762906119,978.5) translate(0 20.444444444444443)"/><use xlink:href="#z" transform="matrix(1,0,0,1,966.5199466431817,978.5) translate(0 20.444444444444443)"/><use xlink:href="#A" transform="matrix(1,0,0,1,804.9967762906119,1015.5) translate(0 20.444444444444443)"/><use xlink:href="#o" transform="matrix(1,0,0,1,966.5199466431817,1015.5) translate(0 20.444444444444443)"/><use xlink:href="#B" transform="matrix(1,0,0,1,804.9967762906119,1052.5) translate(0 20.444444444444443)"/><use xlink:href="#o" transform="matrix(1,0,0,1,966.5199466431817,1052.5) translate(0 20.444444444444443)"/><path d="M1240 560a6 6 0 0 1 6-6h328a6 6 0 0 1 6 6v176a6 6 0 0 1-6 6h-328a6 6 0 0 1-6-6z" fill="#f5fbff"/><path d="M1240 594v-34a6 6 0 0 1 6-6h328a6 6 0 0 1 6 6v34" fill="#c4c9cc"/><path d="M1240 560a6 6 0 0 1 6-6h328a6 6 0 0 1 6 6v176a6 6 0 0 1-6 6h-328a6 6 0 0 1-6-6zM1240 594h340M1300 594v148M1458.96 594v148" stroke="#a9a9a9" stroke-width="2" fill="none"/><use xlink:href="#C" transform="matrix(1,0,0,1,1250,554) translate(133.48765432098764 24.444444444444443)"/><use xlink:href="#b" transform="matrix(1,0,0,1,1245,596.5) translate(10.185185185185187 20.444444444444443)"/><use xlink:href="#D" transform="matrix(1,0,0,1,1305,596.5) translate(0 20.444444444444443)"/><use xlink:href="#d" transform="matrix(1,0,0,1,1463.96131443896,596.5) translate(0 20.444444444444443)"/><use xlink:href="#n" transform="matrix(1,0,0,1,1245,633.5) translate(10.833333333333336 20.444444444444443)"/><use xlink:href="#m" transform="matrix(1,0,0,1,1305,633.5) translate(0 20.444444444444443)"/><use xlink:href="#o" transform="matrix(1,0,0,1,1463.96131443896,633.5) translate(0 20.444444444444443)"/><use xlink:href="#n" transform="matrix(1,0,0,1,1245,670.5) translate(10.833333333333336 20.444444444444443)"/><use xlink:href="#s" transform="matrix(1,0,0,1,1305,670.5) translate(0 20.444444444444443)"/><use xlink:href="#o" transform="matrix(1,0,0,1,1463.96131443896,670.5) translate(0 20.444444444444443)"/><use xlink:href="#E" transform="matrix(1,0,0,1,1305,707.5) translate(0 20.444444444444443)"/><use xlink:href="#w" transform="matrix(1,0,0,1,1463.96131443896,707.5) translate(0 20.444444444444443)"/><path d="M219.47 438.5h-14a6 6 0 0 0-6 6v198.94a6 6 0 0 0 6 6h15.76" stroke="#bdf139" stroke-width="3" fill="none"/><path d="M219.47 428.5v20M239.47 438.5h-20" stroke="#bdf139" stroke-width="3" fill="#fff"/><path d="M238.8 659.44l-20-10 20-10" stroke="#bdf139" stroke-width="3" fill="#fff" fill-opacity="0"/><path d="M238.8 649.44h-20" stroke="#bdf139" stroke-width="3" fill="#fff"/><path d="M221.23 686.57h-15.76a6 6 0 0 0-6 6V908.5a6 6 0 0 0 6 6h14" stroke="#bdf139" stroke-width="3" fill="none"/><path d="M238.8 696.57l-20-10 20-10" stroke="#bdf139" stroke-width="3" fill="#fff" fill-opacity="0"/><path d="M238.8 686.57h-20M219.47 904.5v20M239.47 914.5h-20" stroke="#bdf139" stroke-width="3" fill="#fff"/><path d="M541.47 612.3H594a6 6 0 0 1 6 6v25.2a6 6 0 0 0 6 6h594.5" stroke="#bdf139" stroke-width="3" fill="none"/><path d="M541.47 622.3v-20M521.47 612.3h20" stroke="#bdf139" stroke-width="3" fill="#fff"/><path d="M1238.33 659.5l-20-10 20-10" stroke="#bdf139" stroke-width="3" fill="#fff" fill-opacity="0"/><path d="M1238.33 649.5h-20M1218.33 649.5c0 5.53-4.48 10-10 10s-10-4.47-10-10c0-5.52 4.48-10 10-10s10 4.48 10 10" stroke="#bdf139" stroke-width="3" fill="#fff"/><path d="M541.47 914.5h82.76a6 6 0 0 0 6-6v-56.16a6 6 0 0 1 6-6h84.53" stroke="#bdf139" stroke-width="3" fill="none"/><path d="M541.47 924.5v-20M521.47 914.5h20" stroke="#bdf139" stroke-width="3" fill="#fff"/><path d="M738.33 856.34l-20-10 20-10" stroke="#bdf139" stroke-width="3" fill="#fff" fill-opacity="0"/><path d="M738.33 846.34h-20" stroke="#bdf139" stroke-width="3" fill="#fff"/><path d="M541.47 914.5h82.76a6 6 0 0 0 6-6v-93.27a6 6 0 0 1 6-6h84.53" stroke="#bdf139" stroke-width="3" fill="none"/><path d="M541.47 924.5v-20M521.47 914.5h20" stroke="#bdf139" stroke-width="3" fill="#fff"/><path d="M738.33 819.23l-20-10 20-10" stroke="#bdf139" stroke-width="3" fill="#fff" fill-opacity="0"/><path d="M738.33 809.23h-20" stroke="#bdf139" stroke-width="3" fill="#fff"/><path d="M541.47 1105.5h123a6 6 0 0 0 6-6V889.46a6 6 0 0 1 6-6h44.3" stroke="#bdf139" stroke-width="3" fill="none"/><path d="M541.47 1115.5v-20M521.47 1105.5h20" stroke="#bdf139" stroke-width="3" fill="#fff"/><path d="M738.33 893.45l-20-10 20-10" stroke="#bdf139" stroke-width="3" fill="#fff" fill-opacity="0"/><path d="M738.33 883.45h-20" stroke="#bdf139" stroke-width="3" fill="#fff"/><path d="M1101 772.13h53a6 6 0 0 0 6-6v-73.5a6 6 0 0 1 6-6h34.5" stroke="#bdf139" stroke-width="3" fill="none"/><path d="M1101 782.13v-20M1081 772.13h20" stroke="#bdf139" stroke-width="3" fill="#fff"/><path d="M1238.33 696.63l-20-10 20-10" stroke="#bdf139" stroke-width="3" fill="#fff" fill-opacity="0"/><path d="M1238.33 686.63h-20M1218.33 686.63c0 5.52-4.48 10-10 10s-10-4.48-10-10c0-5.53 4.48-10 10-10s10 4.47 10 10" stroke="#bdf139" stroke-width="3" fill="#fff"/><path d="M740 330.5a6 6 0 0 1 6-6h328a6 6 0 0 1 6 6v213a6 6 0 0 1-6 6H746a6 6 0 0 1-6-6z" fill="#f5fbff"/><path d="M740 364.5v-34a6 6 0 0 1 6-6h328a6 6 0 0 1 6 6v34" fill="#c4c9cc"/><path d="M740 330.5a6 6 0 0 1 6-6h328a6 6 0 0 1 6 6v213a6 6 0 0 1-6 6H746a6 6 0 0 1-6-6zM740 364.5h340M800 364.5v185M947.52 364.5v185" stroke="#a9a9a9" stroke-width="2" fill="none"/><use xlink:href="#F" transform="matrix(1,0,0,1,750,324.5) translate(132.87037037037038 24.444444444444443)"/><use xlink:href="#b" transform="matrix(1,0,0,1,745,367) translate(10.185185185185187 20.444444444444443)"/><use xlink:href="#G" transform="matrix(1,0,0,1,805,367) translate(0 20.444444444444443)"/><use xlink:href="#d" transform="matrix(1,0,0,1,952.5171644654201,367) translate(0 20.444444444444443)"/><use xlink:href="#n" transform="matrix(1,0,0,1,745,404) translate(10.833333333333336 20.444444444444443)"/><use xlink:href="#m" transform="matrix(1,0,0,1,805,404) translate(0 20.444444444444443)"/><use xlink:href="#o" transform="matrix(1,0,0,1,952.5171644654201,404) translate(0 20.444444444444443)"/><use xlink:href="#n" transform="matrix(1,0,0,1,745,441) translate(10.833333333333336 20.444444444444443)"/><use xlink:href="#s" transform="matrix(1,0,0,1,805,441) translate(0 20.444444444444443)"/><use xlink:href="#o" transform="matrix(1,0,0,1,952.5171644654201,441) translate(0 20.444444444444443)"/><use xlink:href="#n" transform="matrix(1,0,0,1,745,478) translate(10.833333333333336 20.444444444444443)"/><use xlink:href="#H" transform="matrix(1,0,0,1,805,478) translate(0 20.444444444444443)"/><use xlink:href="#o" transform="matrix(1,0,0,1,952.5171644654201,478) translate(0 20.444444444444443)"/><use xlink:href="#I" transform="matrix(1,0,0,1,805,515) translate(0 20.444444444444443)"/><use xlink:href="#w" transform="matrix(1,0,0,1,952.5171644654201,515) translate(0 20.444444444444443)"/><path d="M541.47 612.3H594a6 6 0 0 0 6-6V425.94a6 6 0 0 1 6-6h94.5" stroke="#bdf139" stroke-width="3" fill="none"/><path d="M541.47 622.3v-20M521.47 612.3h20" stroke="#bdf139" stroke-width="3" fill="#fff"/><path d="M738.33 429.95l-20-10 20-10" stroke="#bdf139" stroke-width="3" fill="#fff" fill-opacity="0"/><path d="M738.33 419.95h-20M718.33 419.95c0 5.52-4.48 10-10 10s-10-4.48-10-10c0-5.53 4.48-10 10-10s10 4.47 10 10" stroke="#bdf139" stroke-width="3" fill="#fff"/><path d="M719 772.13h-73a6 6 0 0 1-6-6V463.06a6 6 0 0 1 6-6h54.5" stroke="#bdf139" stroke-width="3" fill="none"/><path d="M719 762.13v20M739 772.13h-20" stroke="#bdf139" stroke-width="3" fill="#fff"/><path d="M738.33 467.06l-20-10 20-10" stroke="#bdf139" stroke-width="3" fill="#fff" fill-opacity="0"/><path d="M738.33 457.06h-20M718.33 457.06c0 5.53-4.48 10-10 10s-10-4.47-10-10c0-5.52 4.48-10 10-10s10 4.48 10 10" stroke="#bdf139" stroke-width="3" fill="#fff"/><path d="M1180 335a6 6 0 0 1 6-6h268a6 6 0 0 1 6 6v102a6 6 0 0 1-6 6h-268a6 6 0 0 1-6-6z" fill="#f5fbff"/><path d="M1180 369v-34a6 6 0 0 1 6-6h268a6 6 0 0 1 6 6v34" fill="#c4c9cc"/><path d="M1180 335a6 6 0 0 1 6-6h268a6 6 0 0 1 6 6v102a6 6 0 0 1-6 6h-268a6 6 0 0 1-6-6zM1180 369h280M1240 369v74M1377.73 369v74" stroke="#a9a9a9" stroke-width="2" fill="none"/><use xlink:href="#J" transform="matrix(1,0,0,1,1190.0067791606398,329) translate(94.25925925925927 24.444444444444443)"/><use xlink:href="#b" transform="matrix(1,0,0,1,1185.0067791606398,371.5) translate(10.185185185185187 20.444444444444443)"/><use xlink:href="#H" transform="matrix(1,0,0,1,1245.0067791606398,371.5) translate(0 20.444444444444443)"/><use xlink:href="#d" transform="matrix(1,0,0,1,1382.7276676990716,371.5) translate(0 20.444444444444443)"/><use xlink:href="#K" transform="matrix(1,0,0,1,1245.0067791606398,408.5) translate(0 20.444444444444443)"/><use xlink:href="#e" transform="matrix(1,0,0,1,1382.7276676990716,408.5) translate(0 20.444444444444443)"/><path d="M1159 387.5h-23a6 6 0 0 0-6 6v94.83a6 6 0 0 1-6 6h-24.77" stroke="#bdf139" stroke-width="3" fill="none"/><path d="M1159 377.5v20M1179 387.5h-20" stroke="#bdf139" stroke-width="3" fill="#fff"/><path d="M1081.67 484.33l20 10-20 10" stroke="#bdf139" stroke-width="3" fill="#fff" fill-opacity="0"/><path d="M1081.67 494.33h20" stroke="#bdf139" stroke-width="3" fill="#fff"/><defs><path fill="#5f6572" d="M177-190C167-65 218 103 67 71c-23-6-38-20-44-43l32-5c15 47 100 32 89-28v-30C133-14 115 1 83 1 29 1 15-40 15-95c0-56 16-97 71-98 29-1 48 16 59 35 1-10 0-23 2-32h30zM94-22c36 0 50-32 50-73 0-42-14-75-50-75-39 0-46 34-46 75s6 73 46 73" id="L"/><path fill="#5f6572" d="M114-163C36-179 61-72 57 0H25l-1-190h30c1 12-1 29 2 39 6-27 23-49 58-41v29" id="M"/><path fill="#5f6572" d="M100-194c62-1 85 37 85 99 1 63-27 99-86 99S16-35 15-95c0-66 28-99 85-99zM99-20c44 1 53-31 53-75 0-43-8-75-51-75s-53 32-53 75 10 74 51 75" id="N"/><path fill="#5f6572" d="M84 4C-5 8 30-112 23-190h32v120c0 31 7 50 39 49 72-2 45-101 50-169h31l1 190h-30c-1-10 1-25-2-33-11 22-28 36-60 37" id="O"/><path fill="#5f6572" d="M115-194c55 1 70 41 70 98S169 2 115 4C84 4 66-9 55-30l1 105H24l-1-265h31l2 30c10-21 28-34 59-34zm-8 174c40 0 45-34 45-75s-6-73-45-74c-42 0-51 32-51 76 0 43 10 73 51 73" id="P"/><path fill="#5f6572" d="M-5 72V49h209v23H-5" id="Q"/><path fill="#5f6572" d="M117-194c89-4 53 116 60 194h-32v-121c0-31-8-49-39-48C34-167 62-67 57 0H25l-1-190h30c1 10-1 24 2 32 11-22 29-35 61-36" id="R"/><path fill="#5f6572" d="M141-36C126-15 110 5 73 4 37 3 15-17 15-53c-1-64 63-63 125-63 3-35-9-54-41-54-24 1-41 7-42 31l-33-3c5-37 33-52 76-52 45 0 72 20 72 64v82c-1 20 7 32 28 27v20c-31 9-61-2-59-35zM48-53c0 20 12 33 32 33 41-3 63-29 60-74-43 2-92-5-92 41" id="S"/><path fill="#5f6572" d="M210-169c-67 3-38 105-44 169h-31v-121c0-29-5-50-35-48C34-165 62-65 56 0H25l-1-190h30c1 10-1 24 2 32 10-44 99-50 107 0 11-21 27-35 58-36 85-2 47 119 55 194h-31v-121c0-29-5-49-35-48" id="T"/><path fill="#5f6572" d="M100-194c63 0 86 42 84 106H49c0 40 14 67 53 68 26 1 43-12 49-29l28 8c-11 28-37 45-77 45C44 4 14-33 15-96c1-61 26-98 85-98zm52 81c6-60-76-77-97-28-3 7-6 17-6 28h103" id="U"/><g id="a"><use transform="matrix(0.06172839506172839,0,0,0.06172839506172839,0,0)" xlink:href="#L"/><use transform="matrix(0.06172839506172839,0,0,0.06172839506172839,12.345679012345679,0)" xlink:href="#M"/><use transform="matrix(0.06172839506172839,0,0,0.06172839506172839,19.691358024691358,0)" xlink:href="#N"/><use transform="matrix(0.06172839506172839,0,0,0.06172839506172839,32.03703703703704,0)" xlink:href="#O"/><use transform="matrix(0.06172839506172839,0,0,0.06172839506172839,44.382716049382715,0)" xlink:href="#P"/><use transform="matrix(0.06172839506172839,0,0,0.06172839506172839,56.72839506172839,0)" xlink:href="#Q"/><use transform="matrix(0.06172839506172839,0,0,0.06172839506172839,69.07407407407408,0)" xlink:href="#R"/><use transform="matrix(0.06172839506172839,0,0,0.06172839506172839,81.41975308641976,0)" xlink:href="#S"/><use transform="matrix(0.06172839506172839,0,0,0.06172839506172839,93.76543209876544,0)" xlink:href="#T"/><use transform="matrix(0.06172839506172839,0,0,0.06172839506172839,112.22222222222223,0)" xlink:href="#U"/></g><path fill="#5f6572" d="M30-248c87 1 191-15 191 75 0 78-77 80-158 76V0H30v-248zm33 125c57 0 124 11 124-50 0-59-68-47-124-48v98" id="V"/><path fill="#5f6572" d="M194 0L95-120 63-95V0H30v-248h33v124l119-124h40L117-140 236 0h-42" id="W"/><g id="b"><use transform="matrix(0.06172839506172839,0,0,0.06172839506172839,0,0)" xlink:href="#V"/><use transform="matrix(0.06172839506172839,0,0,0.06172839506172839,14.814814814814813,0)" xlink:href="#W"/></g><path fill="#5f6572" d="M24-231v-30h32v30H24zM24 0v-190h32V0H24" id="X"/><path fill="#5f6572" d="M85-194c31 0 48 13 60 33l-1-100h32l1 261h-30c-2-10 0-23-3-31C134-8 116 4 85 4 32 4 16-35 15-94c0-66 23-100 70-100zm9 24c-40 0-46 34-46 75 0 40 6 74 45 74 42 0 51-32 51-76 0-42-9-74-50-73" id="Y"/><g id="c"><use transform="matrix(0.06172839506172839,0,0,0.06172839506172839,0,0)" xlink:href="#L"/><use transform="matrix(0.06172839506172839,0,0,0.06172839506172839,12.345679012345679,0)" xlink:href="#M"/><use transform="matrix(0.06172839506172839,0,0,0.06172839506172839,19.691358024691358,0)" xlink:href="#N"/><use transform="matrix(0.06172839506172839,0,0,0.06172839506172839,32.03703703703704,0)" xlink:href="#O"/><use transform="matrix(0.06172839506172839,0,0,0.06172839506172839,44.382716049382715,0)" xlink:href="#P"/><use transform="matrix(0.06172839506172839,0,0,0.06172839506172839,56.72839506172839,0)" xlink:href="#Q"/><use transform="matrix(0.06172839506172839,0,0,0.06172839506172839,69.07407407407408,0)" xlink:href="#X"/><use transform="matrix(0.06172839506172839,0,0,0.06172839506172839,73.95061728395062,0)" xlink:href="#Y"/></g><path fill="#5f6572" d="M135-143c-3-34-86-38-87 0 15 53 115 12 119 90S17 21 10-45l28-5c4 36 97 45 98 0-10-56-113-15-118-90-4-57 82-63 122-42 12 7 21 19 24 35" id="Z"/><path fill="#5f6572" d="M24 0v-261h32V0H24" id="aa"/><g id="d"><use transform="matrix(0.06172839506172839,0,0,0.06172839506172839,0,0)" xlink:href="#Z"/><use transform="matrix(0.06172839506172839,0,0,0.06172839506172839,11.11111111111111,0)" xlink:href="#U"/><use transform="matrix(0.06172839506172839,0,0,0.06172839506172839,23.45679012345679,0)" xlink:href="#M"/><use transform="matrix(0.06172839506172839,0,0,0.06172839506172839,30.80246913580247,0)" xlink:href="#X"/><use transform="matrix(0.06172839506172839,0,0,0.06172839506172839,35.67901234567901,0)" xlink:href="#S"/><use transform="matrix(0.06172839506172839,0,0,0.06172839506172839,48.02469135802469,0)" xlink:href="#aa"/></g><path fill="#5f6572" d="M59-47c-2 24 18 29 38 22v24C64 9 27 4 27-40v-127H5v-23h24l9-43h21v43h35v23H59v120" id="ab"/><path fill="#5f6572" d="M141 0L90-78 38 0H4l68-98-65-92h35l48 74 47-74h35l-64 92 68 98h-35" id="ac"/><g id="e"><use transform="matrix(0.06172839506172839,0,0,0.06172839506172839,0,0)" xlink:href="#ab"/><use transform="matrix(0.06172839506172839,0,0,0.06172839506172839,6.172839506172839,0)" xlink:href="#U"/><use transform="matrix(0.06172839506172839,0,0,0.06172839506172839,18.51851851851852,0)" xlink:href="#ac"/><use transform="matrix(0.06172839506172839,0,0,0.06172839506172839,29.62962962962963,0)" xlink:href="#ab"/></g><path fill="#5f6572" d="M108 0H70L1-190h34L89-25l56-165h34" id="ad"/><g id="f"><use transform="matrix(0.06172839506172839,0,0,0.06172839506172839,0,0)" xlink:href="#ad"/><use transform="matrix(0.06172839506172839,0,0,0.06172839506172839,11.11111111111111,0)" xlink:href="#U"/><use transform="matrix(0.06172839506172839,0,0,0.06172839506172839,23.45679012345679,0)" xlink:href="#R"/><use transform="matrix(0.06172839506172839,0,0,0.06172839506172839,35.80246913580247,0)" xlink:href="#O"/><use transform="matrix(0.06172839506172839,0,0,0.06172839506172839,48.148148148148145,0)" xlink:href="#U"/><use transform="matrix(0.06172839506172839,0,0,0.06172839506172839,60.49382716049382,0)" xlink:href="#Z"/></g><g id="g"><use transform="matrix(0.06172839506172839,0,0,0.06172839506172839,0,0)" xlink:href="#ad"/><use transform="matrix(0.06172839506172839,0,0,0.06172839506172839,11.11111111111111,0)" xlink:href="#U"/><use transform="matrix(0.06172839506172839,0,0,0.06172839506172839,23.45679012345679,0)" xlink:href="#R"/><use transform="matrix(0.06172839506172839,0,0,0.06172839506172839,35.80246913580247,0)" xlink:href="#O"/><use transform="matrix(0.06172839506172839,0,0,0.06172839506172839,48.148148148148145,0)" xlink:href="#U"/><use transform="matrix(0.06172839506172839,0,0,0.06172839506172839,60.49382716049382,0)" xlink:href="#Q"/><use transform="matrix(0.06172839506172839,0,0,0.06172839506172839,72.8395061728395,0)" xlink:href="#X"/><use transform="matrix(0.06172839506172839,0,0,0.06172839506172839,77.71604938271605,0)" xlink:href="#Y"/></g><g id="h"><use transform="matrix(0.06172839506172839,0,0,0.06172839506172839,0,0)" xlink:href="#ad"/><use transform="matrix(0.06172839506172839,0,0,0.06172839506172839,11.11111111111111,0)" xlink:href="#U"/><use transform="matrix(0.06172839506172839,0,0,0.06172839506172839,23.45679012345679,0)" xlink:href="#R"/><use transform="matrix(0.06172839506172839,0,0,0.06172839506172839,35.80246913580247,0)" xlink:href="#O"/><use transform="matrix(0.06172839506172839,0,0,0.06172839506172839,48.148148148148145,0)" xlink:href="#U"/></g><path fill="#5f6572" d="M96-169c-40 0-48 33-48 73s9 75 48 75c24 0 41-14 43-38l32 2c-6 37-31 61-74 61-59 0-76-41-82-99-10-93 101-131 147-64 4 7 5 14 7 22l-32 3c-4-21-16-35-41-35" id="ae"/><path fill="#5f6572" d="M115-194c53 0 69 39 70 98 0 66-23 100-70 100C84 3 66-7 56-30L54 0H23l1-261h32v101c10-23 28-34 59-34zm-8 174c40 0 45-34 45-75 0-40-5-75-45-74-42 0-51 32-51 76 0 43 10 73 51 73" id="af"/><g id="i"><use transform="matrix(0.06172839506172839,0,0,0.06172839506172839,0,0)" xlink:href="#ae"/><use transform="matrix(0.06172839506172839,0,0,0.06172839506172839,11.11111111111111,0)" xlink:href="#aa"/><use transform="matrix(0.06172839506172839,0,0,0.06172839506172839,15.987654320987653,0)" xlink:href="#O"/><use transform="matrix(0.06172839506172839,0,0,0.06172839506172839,28.333333333333332,0)" xlink:href="#af"/><use transform="matrix(0.06172839506172839,0,0,0.06172839506172839,40.67901234567901,0)" xlink:href="#Z"/></g><g id="j"><use transform="matrix(0.06172839506172839,0,0,0.06172839506172839,0,0)" xlink:href="#ae"/><use transform="matrix(0.06172839506172839,0,0,0.06172839506172839,11.11111111111111,0)" xlink:href="#aa"/><use transform="matrix(0.06172839506172839,0,0,0.06172839506172839,15.987654320987653,0)" xlink:href="#O"/><use transform="matrix(0.06172839506172839,0,0,0.06172839506172839,28.333333333333332,0)" xlink:href="#af"/><use transform="matrix(0.06172839506172839,0,0,0.06172839506172839,40.67901234567901,0)" xlink:href="#Q"/><use transform="matrix(0.06172839506172839,0,0,0.06172839506172839,53.02469135802469,0)" xlink:href="#X"/><use transform="matrix(0.06172839506172839,0,0,0.06172839506172839,57.901234567901234,0)" xlink:href="#Y"/></g><g id="k"><use transform="matrix(0.06172839506172839,0,0,0.06172839506172839,0,0)" xlink:href="#ae"/><use transform="matrix(0.06172839506172839,0,0,0.06172839506172839,11.11111111111111,0)" xlink:href="#aa"/><use transform="matrix(0.06172839506172839,0,0,0.06172839506172839,15.987654320987653,0)" xlink:href="#O"/><use transform="matrix(0.06172839506172839,0,0,0.06172839506172839,28.333333333333332,0)" xlink:href="#af"/></g><path fill="#5f6572" d="M179-190L93 31C79 59 56 82 12 73V49c39 6 53-20 64-50L1-190h34L92-34l54-156h33" id="ag"/><g id="l"><use transform="matrix(0.06172839506172839,0,0,0.06172839506172839,0,0)" xlink:href="#P"/><use transform="matrix(0.06172839506172839,0,0,0.06172839506172839,12.345679012345679,0)" xlink:href="#aa"/><use transform="matrix(0.06172839506172839,0,0,0.06172839506172839,17.22222222222222,0)" xlink:href="#S"/><use transform="matrix(0.06172839506172839,0,0,0.06172839506172839,29.5679012345679,0)" xlink:href="#ag"/><use transform="matrix(0.06172839506172839,0,0,0.06172839506172839,40.67901234567901,0)" xlink:href="#U"/><use transform="matrix(0.06172839506172839,0,0,0.06172839506172839,53.02469135802469,0)" xlink:href="#M"/><use transform="matrix(0.06172839506172839,0,0,0.06172839506172839,60.37037037037037,0)" xlink:href="#Z"/></g><g id="m"><use transform="matrix(0.06172839506172839,0,0,0.06172839506172839,0,0)" xlink:href="#P"/><use transform="matrix(0.06172839506172839,0,0,0.06172839506172839,12.345679012345679,0)" xlink:href="#aa"/><use transform="matrix(0.06172839506172839,0,0,0.06172839506172839,17.22222222222222,0)" xlink:href="#S"/><use transform="matrix(0.06172839506172839,0,0,0.06172839506172839,29.5679012345679,0)" xlink:href="#ag"/><use transform="matrix(0.06172839506172839,0,0,0.06172839506172839,40.67901234567901,0)" xlink:href="#U"/><use transform="matrix(0.06172839506172839,0,0,0.06172839506172839,53.02469135802469,0)" xlink:href="#M"/><use transform="matrix(0.06172839506172839,0,0,0.06172839506172839,60.37037037037037,0)" xlink:href="#Q"/><use transform="matrix(0.06172839506172839,0,0,0.06172839506172839,72.71604938271605,0)" xlink:href="#X"/><use transform="matrix(0.06172839506172839,0,0,0.06172839506172839,77.5925925925926,0)" xlink:href="#Y"/></g><path fill="#5f6572" d="M63-220v92h138v28H63V0H30v-248h175v28H63" id="ah"/><g id="n"><use transform="matrix(0.06172839506172839,0,0,0.06172839506172839,0,0)" xlink:href="#ah"/><use transform="matrix(0.06172839506172839,0,0,0.06172839506172839,13.518518518518517,0)" xlink:href="#W"/></g><g id="o"><use transform="matrix(0.06172839506172839,0,0,0.06172839506172839,0,0)" xlink:href="#Z"/><use transform="matrix(0.06172839506172839,0,0,0.06172839506172839,11.11111111111111,0)" xlink:href="#T"/><use transform="matrix(0.06172839506172839,0,0,0.06172839506172839,29.5679012345679,0)" xlink:href="#S"/><use transform="matrix(0.06172839506172839,0,0,0.06172839506172839,41.913580246913575,0)" xlink:href="#aa"/><use transform="matrix(0.06172839506172839,0,0,0.06172839506172839,46.79012345679012,0)" xlink:href="#aa"/><use transform="matrix(0.06172839506172839,0,0,0.06172839506172839,51.666666666666664,0)" xlink:href="#X"/><use transform="matrix(0.06172839506172839,0,0,0.06172839506172839,56.54320987654321,0)" xlink:href="#R"/><use transform="matrix(0.06172839506172839,0,0,0.06172839506172839,68.88888888888889,0)" xlink:href="#ab"/></g><path fill="#5f6572" d="M101-234c-31-9-42 10-38 44h38v23H63V0H32v-167H5v-23h27c-7-52 17-82 69-68v24" id="ai"/><g id="p"><use transform="matrix(0.06172839506172839,0,0,0.06172839506172839,0,0)" xlink:href="#ai"/><use transform="matrix(0.06172839506172839,0,0,0.06172839506172839,6.172839506172839,0)" xlink:href="#X"/><use transform="matrix(0.06172839506172839,0,0,0.06172839506172839,11.049382716049383,0)" xlink:href="#M"/><use transform="matrix(0.06172839506172839,0,0,0.06172839506172839,18.395061728395063,0)" xlink:href="#Z"/><use transform="matrix(0.06172839506172839,0,0,0.06172839506172839,29.506172839506174,0)" xlink:href="#ab"/><use transform="matrix(0.06172839506172839,0,0,0.06172839506172839,35.67901234567901,0)" xlink:href="#Q"/><use transform="matrix(0.06172839506172839,0,0,0.06172839506172839,48.02469135802469,0)" xlink:href="#R"/><use transform="matrix(0.06172839506172839,0,0,0.06172839506172839,60.37037037037037,0)" xlink:href="#S"/><use transform="matrix(0.06172839506172839,0,0,0.06172839506172839,72.71604938271605,0)" xlink:href="#T"/><use transform="matrix(0.06172839506172839,0,0,0.06172839506172839,91.17283950617283,0)" xlink:href="#U"/></g><g id="q"><use transform="matrix(0.06172839506172839,0,0,0.06172839506172839,0,0)" xlink:href="#aa"/><use transform="matrix(0.06172839506172839,0,0,0.06172839506172839,4.876543209876543,0)" xlink:href="#S"/><use transform="matrix(0.06172839506172839,0,0,0.06172839506172839,17.22222222222222,0)" xlink:href="#Z"/><use transform="matrix(0.06172839506172839,0,0,0.06172839506172839,28.333333333333332,0)" xlink:href="#ab"/><use transform="matrix(0.06172839506172839,0,0,0.06172839506172839,34.50617283950617,0)" xlink:href="#Q"/><use transform="matrix(0.06172839506172839,0,0,0.06172839506172839,46.85185185185185,0)" xlink:href="#R"/><use transform="matrix(0.06172839506172839,0,0,0.06172839506172839,59.197530864197525,0)" xlink:href="#S"/><use transform="matrix(0.06172839506172839,0,0,0.06172839506172839,71.5432098765432,0)" xlink:href="#T"/><use transform="matrix(0.06172839506172839,0,0,0.06172839506172839,89.99999999999999,0)" xlink:href="#U"/></g><path fill="#5f6572" d="M106-169C34-169 62-67 57 0H25v-261h32l-1 103c12-21 28-36 61-36 89 0 53 116 60 194h-32v-121c2-32-8-49-39-48" id="aj"/><g id="r"><use transform="matrix(0.06172839506172839,0,0,0.06172839506172839,0,0)" xlink:href="#T"/><use transform="matrix(0.06172839506172839,0,0,0.06172839506172839,18.456790123456788,0)" xlink:href="#S"/><use transform="matrix(0.06172839506172839,0,0,0.06172839506172839,30.80246913580247,0)" xlink:href="#ab"/><use transform="matrix(0.06172839506172839,0,0,0.06172839506172839,36.97530864197531,0)" xlink:href="#ae"/><use transform="matrix(0.06172839506172839,0,0,0.06172839506172839,48.08641975308642,0)" xlink:href="#aj"/><use transform="matrix(0.06172839506172839,0,0,0.06172839506172839,60.432098765432094,0)" xlink:href="#U"/><use transform="matrix(0.06172839506172839,0,0,0.06172839506172839,72.77777777777777,0)" xlink:href="#Z"/></g><g id="s"><use transform="matrix(0.06172839506172839,0,0,0.06172839506172839,0,0)" xlink:href="#T"/><use transform="matrix(0.06172839506172839,0,0,0.06172839506172839,18.456790123456788,0)" xlink:href="#S"/><use transform="matrix(0.06172839506172839,0,0,0.06172839506172839,30.80246913580247,0)" xlink:href="#ab"/><use transform="matrix(0.06172839506172839,0,0,0.06172839506172839,36.97530864197531,0)" xlink:href="#ae"/><use transform="matrix(0.06172839506172839,0,0,0.06172839506172839,48.08641975308642,0)" xlink:href="#aj"/><use transform="matrix(0.06172839506172839,0,0,0.06172839506172839,60.432098765432094,0)" xlink:href="#Q"/><use transform="matrix(0.06172839506172839,0,0,0.06172839506172839,72.77777777777777,0)" xlink:href="#X"/><use transform="matrix(0.06172839506172839,0,0,0.06172839506172839,77.65432098765432,0)" xlink:href="#Y"/></g><g id="t"><use transform="matrix(0.06172839506172839,0,0,0.06172839506172839,0,0)" xlink:href="#aj"/><use transform="matrix(0.06172839506172839,0,0,0.06172839506172839,12.345679012345679,0)" xlink:href="#N"/><use transform="matrix(0.06172839506172839,0,0,0.06172839506172839,24.691358024691358,0)" xlink:href="#T"/><use transform="matrix(0.06172839506172839,0,0,0.06172839506172839,43.148148148148145,0)" xlink:href="#U"/><use transform="matrix(0.06172839506172839,0,0,0.06172839506172839,55.49382716049382,0)" xlink:href="#Q"/><use transform="matrix(0.06172839506172839,0,0,0.06172839506172839,67.8395061728395,0)" xlink:href="#X"/><use transform="matrix(0.06172839506172839,0,0,0.06172839506172839,72.71604938271605,0)" xlink:href="#Y"/></g><path fill="#5f6572" d="M206 0h-36l-40-164L89 0H53L-1-190h32L70-26l43-164h34l41 164 42-164h31" id="ak"/><g id="u"><use transform="matrix(0.06172839506172839,0,0,0.06172839506172839,0,0)" xlink:href="#S"/><use transform="matrix(0.06172839506172839,0,0,0.06172839506172839,12.345679012345679,0)" xlink:href="#ak"/><use transform="matrix(0.06172839506172839,0,0,0.06172839506172839,28.333333333333332,0)" xlink:href="#S"/><use transform="matrix(0.06172839506172839,0,0,0.06172839506172839,40.67901234567901,0)" xlink:href="#ag"/><use transform="matrix(0.06172839506172839,0,0,0.06172839506172839,51.79012345679013,0)" xlink:href="#Q"/><use transform="matrix(0.06172839506172839,0,0,0.06172839506172839,64.13580246913581,0)" xlink:href="#X"/><use transform="matrix(0.06172839506172839,0,0,0.06172839506172839,69.01234567901236,0)" xlink:href="#Y"/></g><g id="v"><use transform="matrix(0.06172839506172839,0,0,0.06172839506172839,0,0)" xlink:href="#Y"/><use transform="matrix(0.06172839506172839,0,0,0.06172839506172839,12.345679012345679,0)" xlink:href="#S"/><use transform="matrix(0.06172839506172839,0,0,0.06172839506172839,24.691358024691358,0)" xlink:href="#ab"/><use transform="matrix(0.06172839506172839,0,0,0.06172839506172839,30.864197530864196,0)" xlink:href="#U"/><use transform="matrix(0.06172839506172839,0,0,0.06172839506172839,43.20987654320987,0)" xlink:href="#Q"/><use transform="matrix(0.06172839506172839,0,0,0.06172839506172839,55.55555555555555,0)" xlink:href="#ab"/><use transform="matrix(0.06172839506172839,0,0,0.06172839506172839,61.72839506172839,0)" xlink:href="#X"/><use transform="matrix(0.06172839506172839,0,0,0.06172839506172839,66.60493827160494,0)" xlink:href="#T"/><use transform="matrix(0.06172839506172839,0,0,0.06172839506172839,85.06172839506172,0)" xlink:href="#U"/></g><g id="w"><use transform="matrix(0.06172839506172839,0,0,0.06172839506172839,0,0)" xlink:href="#ab"/><use transform="matrix(0.06172839506172839,0,0,0.06172839506172839,6.172839506172839,0)" xlink:href="#X"/><use transform="matrix(0.06172839506172839,0,0,0.06172839506172839,11.049382716049383,0)" xlink:href="#T"/><use transform="matrix(0.06172839506172839,0,0,0.06172839506172839,29.50617283950617,0)" xlink:href="#U"/><use transform="matrix(0.06172839506172839,0,0,0.06172839506172839,41.85185185185185,0)" xlink:href="#Z"/><use transform="matrix(0.06172839506172839,0,0,0.06172839506172839,52.96296296296296,0)" xlink:href="#ab"/><use transform="matrix(0.06172839506172839,0,0,0.06172839506172839,59.135802469135804,0)" xlink:href="#S"/><use transform="matrix(0.06172839506172839,0,0,0.06172839506172839,71.48148148148148,0)" xlink:href="#T"/><use transform="matrix(0.06172839506172839,0,0,0.06172839506172839,89.93827160493827,0)" xlink:href="#P"/></g><path fill="#5f6572" d="M143 0L79-87 56-68V0H24v-261h32v163l83-92h37l-77 82L181 0h-38" id="al"/><g id="x"><use transform="matrix(0.06172839506172839,0,0,0.06172839506172839,0,0)" xlink:href="#ak"/><use transform="matrix(0.06172839506172839,0,0,0.06172839506172839,15.987654320987653,0)" xlink:href="#U"/><use transform="matrix(0.06172839506172839,0,0,0.06172839506172839,28.333333333333332,0)" xlink:href="#U"/><use transform="matrix(0.06172839506172839,0,0,0.06172839506172839,40.67901234567901,0)" xlink:href="#al"/></g><g id="y"><use transform="matrix(0.06172839506172839,0,0,0.06172839506172839,0,0)" xlink:href="#ai"/><use transform="matrix(0.06172839506172839,0,0,0.06172839506172839,6.172839506172839,0)" xlink:href="#M"/><use transform="matrix(0.06172839506172839,0,0,0.06172839506172839,13.518518518518519,0)" xlink:href="#X"/><use transform="matrix(0.06172839506172839,0,0,0.06172839506172839,18.395061728395063,0)" xlink:href="#U"/><use transform="matrix(0.06172839506172839,0,0,0.06172839506172839,30.74074074074074,0)" xlink:href="#R"/><use transform="matrix(0.06172839506172839,0,0,0.06172839506172839,43.08641975308642,0)" xlink:href="#Y"/><use transform="matrix(0.06172839506172839,0,0,0.06172839506172839,55.432098765432094,0)" xlink:href="#aa"/><use transform="matrix(0.06172839506172839,0,0,0.06172839506172839,60.30864197530864,0)" xlink:href="#ag"/></g><g id="z"><use transform="matrix(0.06172839506172839,0,0,0.06172839506172839,0,0)" xlink:href="#af"/><use transform="matrix(0.06172839506172839,0,0,0.06172839506172839,12.345679012345679,0)" xlink:href="#N"/><use transform="matrix(0.06172839506172839,0,0,0.06172839506172839,24.691358024691358,0)" xlink:href="#N"/><use transform="matrix(0.06172839506172839,0,0,0.06172839506172839,37.03703703703704,0)" xlink:href="#aa"/></g><g id="A"><use transform="matrix(0.06172839506172839,0,0,0.06172839506172839,0,0)" xlink:href="#aj"/><use transform="matrix(0.06172839506172839,0,0,0.06172839506172839,12.345679012345679,0)" xlink:href="#N"/><use transform="matrix(0.06172839506172839,0,0,0.06172839506172839,24.691358024691358,0)" xlink:href="#T"/><use transform="matrix(0.06172839506172839,0,0,0.06172839506172839,43.148148148148145,0)" xlink:href="#U"/><use transform="matrix(0.06172839506172839,0,0,0.06172839506172839,55.49382716049382,0)" xlink:href="#Q"/><use transform="matrix(0.06172839506172839,0,0,0.06172839506172839,67.8395061728395,0)" xlink:href="#Z"/><use transform="matrix(0.06172839506172839,0,0,0.06172839506172839,78.95061728395062,0)" xlink:href="#ae"/><use transform="matrix(0.06172839506172839,0,0,0.06172839506172839,90.06172839506173,0)" xlink:href="#N"/><use transform="matrix(0.06172839506172839,0,0,0.06172839506172839,102.40740740740742,0)" xlink:href="#M"/><use transform="matrix(0.06172839506172839,0,0,0.06172839506172839,109.7530864197531,0)" xlink:href="#U"/></g><g id="B"><use transform="matrix(0.06172839506172839,0,0,0.06172839506172839,0,0)" xlink:href="#S"/><use transform="matrix(0.06172839506172839,0,0,0.06172839506172839,12.345679012345679,0)" xlink:href="#ak"/><use transform="matrix(0.06172839506172839,0,0,0.06172839506172839,28.333333333333332,0)" xlink:href="#S"/><use transform="matrix(0.06172839506172839,0,0,0.06172839506172839,40.67901234567901,0)" xlink:href="#ag"/><use transform="matrix(0.06172839506172839,0,0,0.06172839506172839,51.79012345679013,0)" xlink:href="#Q"/><use transform="matrix(0.06172839506172839,0,0,0.06172839506172839,64.13580246913581,0)" xlink:href="#Z"/><use transform="matrix(0.06172839506172839,0,0,0.06172839506172839,75.24691358024693,0)" xlink:href="#ae"/><use transform="matrix(0.06172839506172839,0,0,0.06172839506172839,86.35802469135804,0)" xlink:href="#N"/><use transform="matrix(0.06172839506172839,0,0,0.06172839506172839,98.70370370370372,0)" xlink:href="#M"/><use transform="matrix(0.06172839506172839,0,0,0.06172839506172839,106.04938271604941,0)" xlink:href="#U"/></g><g id="C"><use transform="matrix(0.06172839506172839,0,0,0.06172839506172839,0,0)" xlink:href="#L"/><use transform="matrix(0.06172839506172839,0,0,0.06172839506172839,12.345679012345679,0)" xlink:href="#N"/><use transform="matrix(0.06172839506172839,0,0,0.06172839506172839,24.691358024691358,0)" xlink:href="#S"/><use transform="matrix(0.06172839506172839,0,0,0.06172839506172839,37.03703703703704,0)" xlink:href="#aa"/><use transform="matrix(0.06172839506172839,0,0,0.06172839506172839,41.91358024691358,0)" xlink:href="#Z"/></g><g id="D"><use transform="matrix(0.06172839506172839,0,0,0.06172839506172839,0,0)" xlink:href="#L"/><use transform="matrix(0.06172839506172839,0,0,0.06172839506172839,12.345679012345679,0)" xlink:href="#N"/><use transform="matrix(0.06172839506172839,0,0,0.06172839506172839,24.691358024691358,0)" xlink:href="#S"/><use transform="matrix(0.06172839506172839,0,0,0.06172839506172839,37.03703703703704,0)" xlink:href="#aa"/><use transform="matrix(0.06172839506172839,0,0,0.06172839506172839,41.91358024691358,0)" xlink:href="#Q"/><use transform="matrix(0.06172839506172839,0,0,0.06172839506172839,54.25925925925926,0)" xlink:href="#X"/><use transform="matrix(0.06172839506172839,0,0,0.06172839506172839,59.135802469135804,0)" xlink:href="#Y"/></g><g id="E"><use transform="matrix(0.06172839506172839,0,0,0.06172839506172839,0,0)" xlink:href="#ab"/><use transform="matrix(0.06172839506172839,0,0,0.06172839506172839,6.172839506172839,0)" xlink:href="#X"/><use transform="matrix(0.06172839506172839,0,0,0.06172839506172839,11.049382716049383,0)" xlink:href="#T"/><use transform="matrix(0.06172839506172839,0,0,0.06172839506172839,29.50617283950617,0)" xlink:href="#U"/><use transform="matrix(0.06172839506172839,0,0,0.06172839506172839,41.85185185185185,0)" xlink:href="#Q"/><use transform="matrix(0.06172839506172839,0,0,0.06172839506172839,54.197530864197525,0)" xlink:href="#Z"/><use transform="matrix(0.06172839506172839,0,0,0.06172839506172839,65.30864197530863,0)" xlink:href="#ae"/><use transform="matrix(0.06172839506172839,0,0,0.06172839506172839,76.41975308641975,0)" xlink:href="#N"/><use transform="matrix(0.06172839506172839,0,0,0.06172839506172839,88.76543209876543,0)" xlink:href="#M"/><use transform="matrix(0.06172839506172839,0,0,0.06172839506172839,96.11111111111111,0)" xlink:href="#U"/><use transform="matrix(0.06172839506172839,0,0,0.06172839506172839,108.4567901234568,0)" xlink:href="#Y"/></g><g id="F"><use transform="matrix(0.06172839506172839,0,0,0.06172839506172839,0,0)" xlink:href="#ae"/><use transform="matrix(0.06172839506172839,0,0,0.06172839506172839,11.11111111111111,0)" xlink:href="#S"/><use transform="matrix(0.06172839506172839,0,0,0.06172839506172839,23.45679012345679,0)" xlink:href="#M"/><use transform="matrix(0.06172839506172839,0,0,0.06172839506172839,30.80246913580247,0)" xlink:href="#Y"/><use transform="matrix(0.06172839506172839,0,0,0.06172839506172839,43.148148148148145,0)" xlink:href="#Z"/></g><g id="G"><use transform="matrix(0.06172839506172839,0,0,0.06172839506172839,0,0)" xlink:href="#ae"/><use transform="matrix(0.06172839506172839,0,0,0.06172839506172839,11.11111111111111,0)" xlink:href="#S"/><use transform="matrix(0.06172839506172839,0,0,0.06172839506172839,23.45679012345679,0)" xlink:href="#M"/><use transform="matrix(0.06172839506172839,0,0,0.06172839506172839,30.80246913580247,0)" xlink:href="#Y"/><use transform="matrix(0.06172839506172839,0,0,0.06172839506172839,43.148148148148145,0)" xlink:href="#Q"/><use transform="matrix(0.06172839506172839,0,0,0.06172839506172839,55.49382716049382,0)" xlink:href="#X"/><use transform="matrix(0.06172839506172839,0,0,0.06172839506172839,60.37037037037037,0)" xlink:href="#Y"/></g><g id="H"><use transform="matrix(0.06172839506172839,0,0,0.06172839506172839,0,0)" xlink:href="#ae"/><use transform="matrix(0.06172839506172839,0,0,0.06172839506172839,11.11111111111111,0)" xlink:href="#N"/><use transform="matrix(0.06172839506172839,0,0,0.06172839506172839,23.45679012345679,0)" xlink:href="#aa"/><use transform="matrix(0.06172839506172839,0,0,0.06172839506172839,28.333333333333336,0)" xlink:href="#N"/><use transform="matrix(0.06172839506172839,0,0,0.06172839506172839,40.67901234567901,0)" xlink:href="#O"/><use transform="matrix(0.06172839506172839,0,0,0.06172839506172839,53.02469135802469,0)" xlink:href="#M"/><use transform="matrix(0.06172839506172839,0,0,0.06172839506172839,60.37037037037037,0)" xlink:href="#Q"/><use transform="matrix(0.06172839506172839,0,0,0.06172839506172839,72.71604938271605,0)" xlink:href="#X"/><use transform="matrix(0.06172839506172839,0,0,0.06172839506172839,77.5925925925926,0)" xlink:href="#Y"/></g><g id="I"><use transform="matrix(0.06172839506172839,0,0,0.06172839506172839,0,0)" xlink:href="#ab"/><use transform="matrix(0.06172839506172839,0,0,0.06172839506172839,6.172839506172839,0)" xlink:href="#X"/><use transform="matrix(0.06172839506172839,0,0,0.06172839506172839,11.049382716049383,0)" xlink:href="#T"/><use transform="matrix(0.06172839506172839,0,0,0.06172839506172839,29.50617283950617,0)" xlink:href="#U"/><use transform="matrix(0.06172839506172839,0,0,0.06172839506172839,41.85185185185185,0)" xlink:href="#Q"/><use transform="matrix(0.06172839506172839,0,0,0.06172839506172839,54.197530864197525,0)" xlink:href="#L"/><use transform="matrix(0.06172839506172839,0,0,0.06172839506172839,66.5432098765432,0)" xlink:href="#X"/><use transform="matrix(0.06172839506172839,0,0,0.06172839506172839,71.41975308641975,0)" xlink:href="#ad"/><use transform="matrix(0.06172839506172839,0,0,0.06172839506172839,82.53086419753086,0)" xlink:href="#U"/><use transform="matrix(0.06172839506172839,0,0,0.06172839506172839,94.87654320987654,0)" xlink:href="#R"/></g><g id="J"><use transform="matrix(0.06172839506172839,0,0,0.06172839506172839,0,0)" xlink:href="#ae"/><use transform="matrix(0.06172839506172839,0,0,0.06172839506172839,11.11111111111111,0)" xlink:href="#N"/><use transform="matrix(0.06172839506172839,0,0,0.06172839506172839,23.45679012345679,0)" xlink:href="#aa"/><use transform="matrix(0.06172839506172839,0,0,0.06172839506172839,28.333333333333336,0)" xlink:href="#N"/><use transform="matrix(0.06172839506172839,0,0,0.06172839506172839,40.67901234567901,0)" xlink:href="#O"/><use transform="matrix(0.06172839506172839,0,0,0.06172839506172839,53.02469135802469,0)" xlink:href="#M"/><use transform="matrix(0.06172839506172839,0,0,0.06172839506172839,60.37037037037037,0)" xlink:href="#Z"/></g><g id="K"><use transform="matrix(0.06172839506172839,0,0,0.06172839506172839,0,0)" xlink:href="#ae"/><use transform="matrix(0.06172839506172839,0,0,0.06172839506172839,11.11111111111111,0)" xlink:href="#N"/><use transform="matrix(0.06172839506172839,0,0,0.06172839506172839,23.45679012345679,0)" xlink:href="#aa"/><use transform="matrix(0.06172839506172839,0,0,0.06172839506172839,28.333333333333336,0)" xlink:href="#N"/><use transform="matrix(0.06172839506172839,0,0,0.06172839506172839,40.67901234567901,0)" xlink:href="#O"/><use transform="matrix(0.06172839506172839,0,0,0.06172839506172839,53.02469135802469,0)" xlink:href="#M"/></g></defs></g></svg>